<?xml version="1.0" encoding="iso-8859-1"?>
<!-- Generator: Adobe Illustrator 18.1.1, SVG Export Plug-In . SVG Version: 6.00 Build 0)  -->
<svg version="1.1" id="Capa_1" xmlns="http://www.w3.org/2000/svg" xmlns:xlink="http://www.w3.org/1999/xlink" x="0px" y="0px"
	 viewBox="0 0 208.257 208.257" style="enable-background:new 0 0 208.257 208.257;" xml:space="preserve">
<g>
	<g>
		<g>
			<g>
				<path style="fill:#010002;" d="M104.123,0.515C47.001,0.515,0.515,46.994,0.515,104.123
					c0,57.133,46.482,103.622,103.608,103.622c57.144,0,103.611-46.489,103.611-103.622C207.734,46.994,161.267,0.515,104.123,0.515
					z M104.123,201.586c-53.736,0-97.456-43.719-97.456-97.463c0-53.736,43.719-97.452,97.456-97.452
					c53.747,0,97.463,43.716,97.463,97.452C201.586,157.87,157.87,201.586,104.123,201.586z"/>
			</g>
			<g>
				<path style="fill:#010002;" d="M104.123,208.257C46.708,208.257,0,161.542,0,104.123C0,46.708,46.708,0,104.123,0
					c57.419,0,104.134,46.708,104.134,104.123C208.257,161.542,161.542,208.257,104.123,208.257z M104.123,1.027
					C47.277,1.027,1.027,47.284,1.027,104.123c0,56.857,46.249,103.1,103.096,103.1c56.857,0,103.1-46.242,103.1-103.1
					C207.223,47.284,160.98,1.027,104.123,1.027z M104.123,202.101c-54.019,0-97.967-43.955-97.967-97.978
					c0-54.019,43.948-97.967,97.967-97.967c54.023,0,97.978,43.948,97.978,97.967C202.101,158.146,158.146,202.101,104.123,202.101z
					 M104.123,7.183c-53.454,0-96.94,43.487-96.94,96.94c0,53.461,43.487,96.944,96.94,96.944c53.461,0,96.944-43.483,96.944-96.944
					C201.067,50.669,157.584,7.183,104.123,7.183z"/>
			</g>
		</g>
		<g>
			<g>
				<path style="fill:#010002;" d="M102.548,39.868L72.096,159.413c-0.197,0.777,0.193,1.575,0.934,1.893
					c0.734,0.322,1.593,0.064,2.029-0.619l29.44-45.892l28.695,45.881c0.311,0.494,0.841,0.769,1.385,0.769
					c0.215,0,0.426-0.043,0.641-0.129c0.744-0.319,1.138-1.127,0.948-1.904L105.716,39.868
					C105.343,38.423,102.91,38.423,102.548,39.868z M105.898,110.88c-0.297-0.469-0.816-0.755-1.374-0.755h-0.004
					c-0.558,0-1.081,0.276-1.381,0.744l-25.378,39.568l26.365-103.543l26.279,103.168L105.898,110.88z"/>
			</g>
			<g>
				<path style="fill:#010002;" d="M134.576,161.957c-0.734,0-1.435-0.383-1.822-0.999l-28.262-45.201L75.492,160.97
					c-0.555,0.863-1.714,1.224-2.663,0.82c-0.973-0.426-1.492-1.478-1.224-2.502l30.445-119.544
					c0.218-0.873,1.052-1.471,2.076-1.471c1.016,0,1.857,0.594,2.083,1.471l30.445,119.541c0.265,1.034-0.258,2.086-1.238,2.502
					C135.141,161.907,134.865,161.957,134.576,161.957z M104.499,113.84l0.437,0.691l28.695,45.881
					c0.276,0.447,0.863,0.641,1.396,0.426c0.505-0.215,0.78-0.766,0.641-1.299L105.222,39.997c-0.132-0.519-0.666-0.701-1.088-0.701
					c-0.419,0-0.952,0.186-1.084,0.701L72.597,159.538c-0.143,0.533,0.129,1.088,0.633,1.299c0.487,0.193,1.102,0.021,1.392-0.426
					L104.499,113.84z M76.48,153.375l27.643-108.561l27.6,108.317l-26.262-41.976c-0.422-0.673-1.485-0.641-1.886-0.011
					L76.48,153.375z M104.123,48.977l-25.088,98.519l23.671-36.905c0.387-0.619,1.063-0.991,1.811-0.991
					c0.741,0,1.421,0.383,1.811,1.013l22.761,36.393L104.123,48.977z"/>
			</g>
		</g>
	</g>
</g>
<g>
</g>
<g>
</g>
<g>
</g>
<g>
</g>
<g>
</g>
<g>
</g>
<g>
</g>
<g>
</g>
<g>
</g>
<g>
</g>
<g>
</g>
<g>
</g>
<g>
</g>
<g>
</g>
<g>
</g>
</svg>
